<?xml version="1.0" standalone="no"?>
<!DOCTYPE svg PUBLIC "-//W3C//DTD SVG 20010904//EN"
 "http://www.w3.org/TR/2001/REC-SVG-20010904/DTD/svg10.dtd">
<svg version="1.0" xmlns="http://www.w3.org/2000/svg"
 width="1750.000000pt" height="1450.000000pt" viewBox="0 0 1750.000000 1450.000000"
 preserveAspectRatio="xMidYMid meet">

<g transform="translate(0.000000,1450.000000) scale(0.100000,-0.100000)"
fill="#FF3949" stroke="#FF3949">
<path d="M4470 14330 c-169 -16 -352 -41 -485 -66 -1437 -275 -2711 -1241
-3380 -2564 -269 -532 -414 -1035 -482 -1665 -25 -242 -26 -932 0 -1185 55
-541 147 -984 302 -1445 298 -891 731 -1562 1510 -2340 774 -773 1900 -1665
3975 -3146 1203 -859 2324 -1631 2483 -1709 98 -48 189 -64 367 -63 184 0 267
18 395 87 540 287 4017 2793 5300 3820 697 558 1248 1089 1650 1591 597 745
961 1505 1164 2430 81 371 105 571 123 1067 12 333 3 782 -23 1053 -61 664
-383 1482 -834 2125 -644 916 -1617 1585 -2717 1870 -1127 290 -2330 149
-3383 -399 -351 -183 -541 -311 -810 -546 -331 -289 -665 -625 -797 -802 -38
-51 -71 -93 -73 -93 -2 0 -39 46 -83 103 -189 243 -462 528 -687 716 -556 464
-1203 816 -1820 989 -227 64 -549 127 -805 158 -157 19 -738 28 -890 14z"/>
</g>
</svg>
