<?xml version="1.0" standalone="no"?>
<!DOCTYPE svg PUBLIC "-//W3C//DTD SVG 20010904//EN"
 "http://www.w3.org/TR/2001/REC-SVG-20010904/DTD/svg10.dtd">
<svg version="1.0" xmlns="http://www.w3.org/2000/svg"
 width="840.000000pt" height="880.000000pt" viewBox="0 0 840.000000 880.000000"
 preserveAspectRatio="xMidYMid meet">

<g transform="translate(0.000000,880.000000) scale(0.100000,-0.100000)"
fill="white" stroke="white">
<path d="M4125 7609 c-68 -11 -75 -13 -168 -58 -86 -42 -154 -103 -210 -189
-89 -136 -81 -22 -87 -1287 l-5 -1120 -1095 -6 c-781 -3 -1108 -8 -1140 -17
-86 -22 -110 -31 -139 -51 -16 -12 -34 -21 -40 -21 -6 0 -44 -33 -85 -72 -90
-90 -139 -183 -161 -308 -19 -103 -9 -184 37 -302 51 -135 189 -262 339 -313
l73 -25 1103 0 c607 0 1104 -1 1105 -2 2 -2 5 -509 8 -1128 l5 -1125 41 -85
c33 -68 56 -99 115 -156 89 -85 167 -124 294 -149 82 -15 98 -15 182 -2 134
22 210 61 308 161 44 45 86 92 92 106 7 14 22 48 35 75 l23 50 5 1125 5 1125
1120 5 1120 5 60 24 c83 34 131 68 205 147 116 124 163 276 141 454 -17 132
-62 219 -169 325 -65 64 -157 117 -238 137 -36 9 -338 13 -1146 15 l-1098 3 0
1105 0 1105 -22 67 c-26 81 -83 170 -153 236 -63 62 -111 89 -205 120 -90 30
-174 39 -255 26z"/>
</g>
</svg>
