<?xml version="1.0" standalone="no"?>
<!DOCTYPE svg PUBLIC "-//W3C//DTD SVG 20010904//EN"
 "http://www.w3.org/TR/2001/REC-SVG-20010904/DTD/svg10.dtd">
<svg version="1.0" xmlns="http://www.w3.org/2000/svg"
 width="2333.000000pt" height="1400.000000pt" viewBox="0 0 2333.000000 1400.000000"
 preserveAspectRatio="xMidYMid meet">
<metadata>
Created by potrace 1.16, written by Peter Selinger 2001-2019
</metadata>
<g transform="translate(0.000000,1400.000000) scale(0.100000,-0.100000)"
fill="white" stroke="white">
<path d="M1526 13689 c-328 -29 -658 -165 -919 -377 -95 -77 -241 -233 -314
-336 -118 -166 -217 -386 -269 -601 -23 -94 -24 -116 -24 -395 0 -255 3 -307
20 -383 54 -246 180 -507 338 -702 66 -81 9956 -10029 10094 -10153 275 -248
615 -391 1001 -422 158 -13 445 -6 573 15 329 52 620 189 862 407 137 123
10027 10072 10094 10153 147 181 264 413 324 644 23 90 24 105 24 440 0 338
-1 348 -25 441 -85 319 -239 578 -480 808 -523 500 -1309 610 -1955 276 -214
-111 -247 -140 -901 -794 -334 -333 -2336 -2344 -4450 -4470 -2114 -2126
-3846 -3865 -3849 -3865 -3 0 -1730 1735 -3839 3855 -2108 2120 -4111 4132
-4450 4470 -679 678 -701 698 -936 815 -204 102 -391 154 -620 174 -134 12
-158 12 -299 0z"/>
</g>
</svg>
