<?xml version="1.0" standalone="no"?>
<!DOCTYPE svg PUBLIC "-//W3C//DTD SVG 20010904//EN"
 "http://www.w3.org/TR/2001/REC-SVG-20010904/DTD/svg10.dtd">
<svg version="1.0" xmlns="http://www.w3.org/2000/svg"
 width="1000.000000pt" height="1080.000000pt" viewBox="0 0 1000.000000 1080.000000"
 preserveAspectRatio="xMidYMid meet">

<g transform="translate(0.000000,1080.000000) scale(0.100000,-0.100000)"
fill="white" stroke="white">
<path d="M1931 8679 c-104 -20 -181 -83 -230 -188 -35 -76 -37 -205 -4 -266
13 -23 510 -528 1202 -1220 l1181 -1180 2 -1180 3 -1180 23 -50 c19 -41 143
-171 665 -693 353 -354 660 -654 682 -667 154 -91 382 -17 456 148 l24 52 3
1785 2 1785 1181 1180 c692 692 1189 1197 1202 1220 17 32 22 57 22 125 0 76
-4 92 -33 152 -37 77 -100 137 -170 165 -45 17 -170 18 -3107 19 -1683 1
-3080 -2 -3104 -7z"/>
</g>
</svg>
