<?xml version="1.0" standalone="no"?>
<!DOCTYPE svg PUBLIC "-//W3C//DTD SVG 20010904//EN"
 "http://www.w3.org/TR/2001/REC-SVG-20010904/DTD/svg10.dtd">
<svg version="1.0" xmlns="http://www.w3.org/2000/svg"
 width="2800.000000pt" height="2850.000000pt" viewBox="0 0 2800.000000 2850.000000"
 preserveAspectRatio="xMidYMid meet">
<metadata>
Created by potrace 1.16, written by Peter Selinger 2001-2019
</metadata>
<g transform="translate(0.000000,2850.000000) scale(0.100000,-0.100000)"
fill="white" stroke="white">
<path d="M3965 27940 c-1270 -4 -2421 -11 -2558 -15 -218 -6 -260 -10 -340
-31 -280 -75 -532 -253 -705 -499 -80 -114 -175 -304 -206 -417 -86 -302 -72
-739 29 -938 67 -132 1549 -1634 6357 -6445 l3588 -3589 1 -2416 c0 -1328 4
-3540 8 -4915 l7 -2500 67 -135 c73 -149 113 -203 318 -427 608 -667 4320
-4380 5153 -5155 139 -129 172 -154 250 -192 494 -242 1167 -116 1576 294 120
120 196 233 287 430 l72 155 10 7434 11 7435 3818 3820 c3912 3915 5602 5622
6032 6091 141 153 164 239 164 615 1 341 -9 389 -135 644 -120 243 -286 434
-494 571 -218 143 -249 148 -965 165 -1037 25 -16215 38 -22345 20z"/>
</g>
</svg>
