<?xml version="1.0" standalone="no"?>
<!DOCTYPE svg PUBLIC "-//W3C//DTD SVG 20010904//EN"
 "http://www.w3.org/TR/2001/REC-SVG-20010904/DTD/svg10.dtd">
<svg version="1.0" xmlns="http://www.w3.org/2000/svg"
 width="512.000000pt" height="512.000000pt" viewBox="0 0 512.000000 512.000000"
 preserveAspectRatio="xMidYMid meet">

<g transform="translate(0.000000,512.000000) scale(0.100000,-0.100000)"
fill="#CFD8DC" stroke="#CFD8DC">
<path d="M1490 4259 c-446 -51 -838 -385 -964 -822 -70 -241 -57 -567 33 -835
121 -360 341 -600 1001 -1089 322 -238 843 -603 911 -639 45 -23 133 -23 179
1 119 61 940 652 1270 914 429 341 623 628 697 1036 24 131 24 412 0 525 -53
247 -190 479 -377 638 -398 338 -951 370 -1390 80 -63 -41 -225 -193 -269
-252 l-21 -29 -22 29 c-145 189 -382 348 -609 409 -152 40 -290 51 -439 34z"/>
</g>
</svg>
