<?xml version="1.0" standalone="no"?>
<!DOCTYPE svg PUBLIC "-//W3C//DTD SVG 20010904//EN"
 "http://www.w3.org/TR/2001/REC-SVG-20010904/DTD/svg10.dtd">
<svg version="1.0" xmlns="http://www.w3.org/2000/svg"
 width="471.000000pt" height="451.000000pt" viewBox="0 0 471.000000 451.000000"
 preserveAspectRatio="xMidYMid meet">
<metadata>
Created by potrace 1.16, written by Peter Selinger 2001-2019
</metadata>
<g transform="translate(0.000000,451.000000) scale(0.100000,-0.100000)"
fill="white" stroke="white">
<path d="M1232 4299 c-108 -14 -223 -48 -327 -98 -303 -145 -506 -405 -583
-746 -13 -61 -16 -211 -19 -1120 -4 -1092 -1 -1211 37 -1359 23 -92 90 -238
150 -327 62 -93 212 -235 314 -298 96 -60 230 -114 340 -138 94 -21 1108 -32
1132 -12 12 10 14 289 14 2048 0 1571 -3 2040 -12 2049 -14 14 -939 15 -1046
1z m723 -2049 l0 -1725 -315 -3 c-347 -3 -439 6 -553 54 -208 87 -373 276
-427 490 -19 75 -20 116 -20 1184 0 1061 1 1110 19 1182 73 284 317 500 611
538 30 4 197 7 370 6 l315 -1 0 -1725z"/>
<path d="M1232 3445 c-111 -31 -201 -108 -250 -213 -24 -50 -27 -69 -27 -162
0 -96 3 -110 29 -165 38 -76 105 -143 181 -181 55 -26 69 -29 165 -29 93 0
112 3 162 27 298 140 300 560 3 699 -79 37 -182 47 -263 24z"/>
<path d="M2713 4299 c-18 -19 -19 -4079 -1 -4097 15 -15 655 -17 778 -2 127
16 223 45 345 105 295 144 504 415 566 735 18 96 19 152 19 1211 0 1084 -1
1113 -21 1212 -81 398 -377 707 -779 813 -105 27 -107 27 -500 31 -311 4 -398
2 -407 -8z m896 -1850 c120 -27 228 -114 284 -228 30 -62 32 -72 32 -176 0
-103 -2 -114 -32 -177 -148 -312 -591 -318 -747 -9 -74 145 -51 330 58 457 96
112 261 167 405 133z"/>
</g>
</svg>
