<?xml version="1.0" standalone="no"?>
<!DOCTYPE svg PUBLIC "-//W3C//DTD SVG 20010904//EN"
 "http://www.w3.org/TR/2001/REC-SVG-20010904/DTD/svg10.dtd">
<svg version="1.0" xmlns="http://www.w3.org/2000/svg"
 width="860.000000pt" height="547.000000pt" viewBox="0 0 860.000000 547.000000"
 preserveAspectRatio="xMidYMid meet">
<metadata>
Created by potrace 1.16, written by Peter Selinger 2001-2019
</metadata>
<g transform="translate(0.000000,547.000000) scale(0.100000,-0.100000)"
fill="white" stroke="white">
<path d="M1620 2725 l0 -2320 568 0 567 0 -3 782 -2 782 331 1 c323 0 379 5
363 32 -4 6 -3 8 3 5 13 -8 46 27 36 38 -5 4 -3 5 3 2 14 -8 117 96 107 108
-5 4 -3 5 3 2 6 -4 20 3 30 16 19 21 19 21 -1 7 -18 -14 -19 -14 -6 2 7 10 17
16 21 13 11 -7 81 70 73 80 -5 4 -3 5 3 2 14 -8 47 26 37 38 -5 4 -3 5 3 2 14
-8 237 216 227 228 -4 4 -3 5 3 2 14 -8 37 17 26 27 -4 4 0 6 8 4 8 -2 14 3
12 10 -1 8 1 11 6 8 5 -3 28 14 51 38 l41 42 0 835 0 834 -348 348 -347 347
-908 3 -907 2 0 -2320z m1334 1393 c-5 -8 -2 -9 9 -5 16 6 17 -40 17 -619 l0
-625 -112 3 -113 3 -2 625 c-1 344 0 621 3 615 2 -6 39 -9 89 -7 49 2 83 7 80
13 -4 5 3 9 15 9 14 0 19 -4 14 -12z"/>
<path d="M4686 4690 c-222 -222 -352 -360 -349 -369 4 -8 1 -11 -6 -7 -8 5
-11 -406 -11 -1591 l0 -1598 151 -151 c104 -104 157 -150 167 -146 11 4 14 1
10 -10 -8 -20 281 -308 301 -301 10 4 12 1 8 -9 -3 -10 10 -31 37 -57 l42 -41
614 0 615 0 357 357 358 358 0 635 0 635 -595 -3 -595 -2 0 -528 0 -527 -110
0 -110 0 2 1390 3 1390 105 0 105 0 0 -440 0 -440 598 0 597 0 0 551 0 552
-54 45 c-29 26 -57 43 -61 39 -3 -4 -5 0 -3 8 2 8 -3 14 -10 12 -8 -1 -11 1
-8 6 3 5 -32 44 -77 88 l-82 79 75 -80 75 -80 -76 73 c-42 41 -76 79 -75 85 0
7 -66 77 -149 157 -117 112 -129 122 -55 45 l95 -100 -97 94 c-53 52 -95 99
-92 103 9 14 -28 49 -43 43 -8 -2 -12 -1 -9 4 8 12 -29 43 -39 34 -4 -5 -5 -3
-2 3 4 6 -2 19 -12 28 -16 15 -77 17 -630 19 l-611 2 -354 -355z"/>
</g>
</svg>
