<?xml version="1.0" standalone="no"?>
<!DOCTYPE svg PUBLIC "-//W3C//DTD SVG 20010904//EN"
 "http://www.w3.org/TR/2001/REC-SVG-20010904/DTD/svg10.dtd">
<svg version="1.0" xmlns="http://www.w3.org/2000/svg"
 width="2000.000000pt" height="1567.000000pt" viewBox="0 0 2000.000000 1567.000000"
 preserveAspectRatio="xMidYMid meet">
<metadata>
Created by potrace 1.16, written by Peter Selinger 2001-2019
</metadata>
<g transform="translate(0.000000,1567.000000) scale(0.100000,-0.100000)"
fill="white" stroke="white">
<path d="M7555 10318 c4 -2878 11 -6110 14 -7182 l6 -1949 1554 -534 c855
-293 1555 -532 1557 -530 2 2 6 2766 9 6143 4 3734 10 6180 16 6244 40 445
303 650 672 522 267 -92 498 -336 583 -617 18 -57 19 -184 21 -2776 l3 -2716
38 -16 c20 -8 98 -40 172 -71 1142 -479 2072 -372 2656 307 504 587 766 1599
741 2867 -6 311 -21 486 -63 740 -289 1729 -1546 2937 -3767 3619 -106 33
-1090 309 -2187 616 -1097 306 -2003 559 -2013 562 -18 5 -19 -140 -12 -5229z"/>
<path d="M6595 6726 c-170 -57 -1294 -457 -2496 -889 -2144 -770 -2193 -788
-2500 -927 -645 -293 -931 -454 -1129 -637 -275 -255 -371 -581 -265 -900 188
-566 1023 -972 2671 -1302 267 -54 987 -182 1119 -200 337 -46 891 -64 1271
-42 454 27 940 93 1484 204 l115 23 3 857 2 857 -52 -21 c-616 -245 -1627
-599 -2003 -701 l-120 -33 -505 3 c-540 3 -620 9 -755 55 -101 35 -151 62
-208 115 -146 136 -87 288 156 402 56 26 875 339 1819 696 l1718 649 0 948 c0
521 -3 947 -7 946 -5 0 -147 -47 -318 -103z"/>
<path d="M14460 6050 c-1093 -76 -2292 -327 -3027 -633 l-123 -51 0 -974 c0
-923 1 -974 18 -970 9 3 503 183 1097 400 1020 373 1127 410 1920 661 910 288
873 279 1240 319 160 17 659 17 785 0 212 -30 393 -91 472 -161 210 -184 -85
-450 -742 -671 -69 -23 -1175 -425 -2457 -893 l-2333 -852 0 -545 c0 -300 -3
-724 -7 -942 -5 -330 -4 -398 7 -398 24 0 6908 2480 7070 2547 333 138 690
330 913 493 136 100 349 312 416 415 64 99 108 212 123 313 9 69 8 87 -11 162
-90 345 -326 627 -746 891 -626 394 -1710 686 -3125 843 -124 14 -283 30 -355
36 -165 15 -969 21 -1135 10z"/>
</g>
</svg>
