<?xml version="1.0" standalone="no"?>
<!DOCTYPE svg PUBLIC "-//W3C//DTD SVG 20010904//EN"
 "http://www.w3.org/TR/2001/REC-SVG-20010904/DTD/svg10.dtd">
<svg version="1.0" xmlns="http://www.w3.org/2000/svg"
 width="256.000000pt" height="256.000000pt" viewBox="0 0 256.000000 256.000000"
 preserveAspectRatio="xMidYMid meet">
<metadata>
Created by potrace 1.16, written by Peter Selinger 2001-2019
</metadata>
<g transform="translate(0.000000,256.000000) scale(0.100000,-0.100000)"
fill="white" stroke="white">
<path d="M1051 2535 c-144 -26 -320 -94 -444 -172 -48 -30 -43 -39 9 -17 115
48 330 -31 580 -214 40 -29 77 -52 82 -52 6 0 45 25 88 55 175 126 394 225
496 225 28 0 63 -9 93 -25 27 -13 51 -23 53 -20 13 13 -152 108 -268 153 -138
55 -246 74 -430 78 -122 2 -200 -1 -259 -11z"/>
<path d="M1959 2197 c-128 -57 -286 -162 -406 -271 l-53 -48 99 -106 c309
-333 526 -669 602 -936 23 -79 36 -248 24 -322 l-7 -48 -27 70 c-68 174 -155
304 -372 555 -187 216 -529 565 -546 558 -4 -2 -116 -114 -248 -249 -371 -379
-578 -653 -656 -870 l-24 -65 -3 89 c-5 152 50 370 140 554 84 172 298 472
487 681 l85 94 -84 80 c-156 145 -329 243 -451 254 -78 7 -140 -27 -213 -116
-212 -260 -306 -540 -293 -870 7 -195 43 -337 126 -507 176 -358 494 -604 891
-690 119 -26 381 -26 500 0 260 56 464 168 650 355 238 239 354 507 367 847
13 334 -89 625 -311 887 -58 68 -97 92 -162 102 -31 4 -55 -1 -115 -28z"/>
</g>
</svg>
