<svg width="24" height="20" viewBox="0 0 24 20" fill="none" xmlns="http://www.w3.org/2000/svg">
<g clip-path="url(#clip0_497_1289)">
<mask id="path-1-outside-1_497_1289" maskUnits="userSpaceOnUse" x="-1" y="-0.999878" width="22" height="22" fill="black">
<rect fill="white" x="-1" y="-0.999878" width="22" height="22"/>
<path d="M19.7754 10.5674L9.48614 0.432658C9.35106 0.296219 9.18967 0.187684 9.01143 0.113412C8.83319 0.0391405 8.64168 0.00062515 8.44812 0.00012207H1.46232C1.07449 0.00012207 0.702542 0.151762 0.428304 0.421684C0.154065 0.691605 0 1.0577 0 1.43942V8.31526C0.000524738 8.50399 0.0389508 8.69075 0.113068 8.86481C0.187186 9.03886 0.295533 9.19678 0.431877 9.32948L10.7287 19.4643C10.8645 19.598 11.0258 19.704 11.2032 19.7764C11.3807 19.8488 11.5709 19.886 11.763 19.886C11.9551 19.886 12.1453 19.8488 12.3227 19.7764C12.5002 19.704 12.6614 19.598 12.7972 19.4643L19.7754 12.5959C20.0475 12.3262 20.2002 11.9617 20.2002 11.5817C20.2002 11.2016 20.0475 10.8371 19.7754 10.5674V10.5674ZM11.8046 18.4127L1.52294 8.31526V1.49163H8.41782L18.7071 11.5444L11.8046 18.4127Z"/>
</mask>
<path d="M19.7754 10.5674L9.48614 0.432658C9.35106 0.296219 9.18967 0.187684 9.01143 0.113412C8.83319 0.0391405 8.64168 0.00062515 8.44812 0.00012207H1.46232C1.07449 0.00012207 0.702542 0.151762 0.428304 0.421684C0.154065 0.691605 0 1.0577 0 1.43942V8.31526C0.000524738 8.50399 0.0389508 8.69075 0.113068 8.86481C0.187186 9.03886 0.295533 9.19678 0.431877 9.32948L10.7287 19.4643C10.8645 19.598 11.0258 19.704 11.2032 19.7764C11.3807 19.8488 11.5709 19.886 11.763 19.886C11.9551 19.886 12.1453 19.8488 12.3227 19.7764C12.5002 19.704 12.6614 19.598 12.7972 19.4643L19.7754 12.5959C20.0475 12.3262 20.2002 11.9617 20.2002 11.5817C20.2002 11.2016 20.0475 10.8371 19.7754 10.5674V10.5674ZM11.8046 18.4127L1.52294 8.31526V1.49163H8.41782L18.7071 11.5444L11.8046 18.4127Z" fill="#009688"/>
<path d="M19.7754 10.5674L9.48614 0.432658C9.35106 0.296219 9.18967 0.187684 9.01143 0.113412C8.83319 0.0391405 8.64168 0.00062515 8.44812 0.00012207H1.46232C1.07449 0.00012207 0.702542 0.151762 0.428304 0.421684C0.154065 0.691605 0 1.0577 0 1.43942V8.31526C0.000524738 8.50399 0.0389508 8.69075 0.113068 8.86481C0.187186 9.03886 0.295533 9.19678 0.431877 9.32948L10.7287 19.4643C10.8645 19.598 11.0258 19.704 11.2032 19.7764C11.3807 19.8488 11.5709 19.886 11.763 19.886C11.9551 19.886 12.1453 19.8488 12.3227 19.7764C12.5002 19.704 12.6614 19.598 12.7972 19.4643L19.7754 12.5959C20.0475 12.3262 20.2002 11.9617 20.2002 11.5817C20.2002 11.2016 20.0475 10.8371 19.7754 10.5674V10.5674ZM11.8046 18.4127L1.52294 8.31526V1.49163H8.41782L18.7071 11.5444L11.8046 18.4127Z" stroke="#009688" stroke-width="0.4" mask="url(#path-1-outside-1_497_1289)"/>
<path d="M11.5 7.5V14.5" stroke="#009688" stroke-width="2" stroke-linecap="round"/>
<line x1="8" y1="11" x2="15" y2="11" stroke="#009688" stroke-width="2" stroke-linecap="round"/>
<mask id="path-4-outside-2_497_1289" maskUnits="userSpaceOnUse" x="9.94092" y="-1" width="15" height="22" fill="black">
<rect fill="white" x="9.94092" y="-1" width="15" height="22"/>
<path d="M23.8518 10.5376L13.5625 0.410282C13.4255 0.277883 13.2633 0.173476 13.0851 0.10308C12.907 0.0326843 12.7164 -0.00230894 12.5245 0.000118134H10.9409L22.7834 11.522L14.8051 19.4419C14.9409 19.5756 15.1021 19.6817 15.2796 19.754C15.457 19.8264 15.6472 19.8637 15.8393 19.8637C16.0314 19.8637 16.2216 19.8264 16.3991 19.754C16.5765 19.6817 16.7377 19.5756 16.8735 19.4419L23.8518 12.5735C23.9876 12.4398 24.0954 12.2811 24.1689 12.1065C24.2424 11.9318 24.2803 11.7446 24.2803 11.5556C24.2803 11.3665 24.2424 11.1793 24.1689 11.0046C24.0954 10.83 23.9876 10.6713 23.8518 10.5376V10.5376Z"/>
</mask>
<path d="M23.8518 10.5376L13.5625 0.410282C13.4255 0.277883 13.2633 0.173476 13.0851 0.10308C12.907 0.0326843 12.7164 -0.00230894 12.5245 0.000118134H10.9409L22.7834 11.522L14.8051 19.4419C14.9409 19.5756 15.1021 19.6817 15.2796 19.754C15.457 19.8264 15.6472 19.8637 15.8393 19.8637C16.0314 19.8637 16.2216 19.8264 16.3991 19.754C16.5765 19.6817 16.7377 19.5756 16.8735 19.4419L23.8518 12.5735C23.9876 12.4398 24.0954 12.2811 24.1689 12.1065C24.2424 11.9318 24.2803 11.7446 24.2803 11.5556C24.2803 11.3665 24.2424 11.1793 24.1689 11.0046C24.0954 10.83 23.9876 10.6713 23.8518 10.5376V10.5376Z" fill="#009688"/>
<path d="M23.8518 10.5376L13.5625 0.410282C13.4255 0.277883 13.2633 0.173476 13.0851 0.10308C12.907 0.0326843 12.7164 -0.00230894 12.5245 0.000118134H10.9409L22.7834 11.522L14.8051 19.4419C14.9409 19.5756 15.1021 19.6817 15.2796 19.754C15.457 19.8264 15.6472 19.8637 15.8393 19.8637C16.0314 19.8637 16.2216 19.8264 16.3991 19.754C16.5765 19.6817 16.7377 19.5756 16.8735 19.4419L23.8518 12.5735C23.9876 12.4398 24.0954 12.2811 24.1689 12.1065C24.2424 11.9318 24.2803 11.7446 24.2803 11.5556C24.2803 11.3665 24.2424 11.1793 24.1689 11.0046C24.0954 10.83 23.9876 10.6713 23.8518 10.5376V10.5376Z" stroke="#009688" stroke-width="0.4" mask="url(#path-4-outside-2_497_1289)"/>
</g>
<defs>
<clipPath id="clip0_497_1289">
<rect width="24" height="20" fill="white"/>
</clipPath>
</defs>
</svg>
