<svg width="24" height="20" viewBox="0 0 24 20" fill="none" xmlns="http://www.w3.org/2000/svg">
<g clip-path="url(#clip0_497_1289)">
<path d="M0.0210625 8.90399C0.100364 9.09022 0.216227 9.25909 0.361914 9.40093L19.8456 10.4962L9.55721 0.362301C9.55706 0.362152 9.55691 0.362003 9.55676 0.361854C9.41241 0.216169 9.24008 0.100355 9.04989 0.0211055C8.85951 -0.0582235 8.65502 -0.0993405 8.44838 -0.0998779H8.44812H1.46232C1.04848 -0.0998779 0.651266 0.0619187 0.358156 0.350414C0.064993 0.638963 -0.1 1.03066 -0.1 1.43942L-0.1 8.31526L-0.0999996 8.31554C-0.0994376 8.51767 -0.0582804 8.71766 0.0210625 8.90399ZM11.8042 18.2721L1.62294 8.27331V1.59163H8.37707L18.5647 11.545L11.8042 18.2721Z" fill="#009688" stroke="#009688" stroke-width="0.2"/>
<path d="M11.5 7.5V14.5" stroke="#009688" stroke-width="2" stroke-linecap="round"/>
<line x1="8" y1="11" x2="15" y2="11" stroke="#009688" stroke-width="2" stroke-linecap="round"/>
<path d="M13.6326 0.33901L13.6326 0.339013L23.9219 10.4663C23.9219 10.4663 23.9219 10.4663 23.9219 10.4663C24.0671 10.6092 24.1824 10.7789 24.2611 10.9658C24.3398 11.1527 24.3803 11.3531 24.3803 11.5556C24.3803 11.758 24.3398 11.9584 24.2611 12.1453C24.1824 12.3322 24.0671 12.5019 23.9219 12.6448L13.6326 0.33901ZM13.6326 0.33901L13.632 0.338383C13.4855 0.196818 13.3122 0.0852651 13.1219 0.0100776C12.9318 -0.0650302 12.7286 -0.102387 12.5238 -0.0998819H10.9409H10.6947L10.8712 0.0717925L22.6408 11.5227L14.7346 19.3709L14.6628 19.4422L14.7349 19.5131C14.8801 19.6561 15.0523 19.7694 15.2418 19.8466C15.4313 19.9239 15.6343 19.9637 15.8393 19.9637C16.0443 19.9637 16.2473 19.9239 16.4368 19.8466C16.6263 19.7694 16.7985 19.6561 16.9437 19.5131C16.9437 19.5131 16.9437 19.5131 16.9437 19.5131L23.9219 12.6448L13.6326 0.33901Z" fill="#009688" stroke="#009688" stroke-width="0.2"/>
</g>
<defs>
<clipPath id="clip0_497_1289">
<rect width="24" height="20" fill="white"/>
</clipPath>
</defs>
</svg>
