<svg width="35" height="30" viewBox="0 0 35 30" fill="none" xmlns="http://www.w3.org/2000/svg">
<path d="M1.57698 0.0364399C1.12086 0.0952721 0.731825 0.277653 0.450107 0.571815C-0.0328381 1.06601 0.000699836 0.171757 0.000699836 12.1265C0.000699836 24.1872 -0.0395456 23.2106 0.490353 23.7165C0.731825 23.9401 1.30868 24.2225 4.32708 25.5874C6.2857 26.4758 9.26386 27.8289 10.9609 28.5937C14.261 30.0998 14.3281 30.1175 14.811 29.8998C14.9318 29.8469 15.0927 29.7174 15.1598 29.6115C15.2873 29.4292 15.294 29.2938 15.294 26.4993V23.5753L19.2716 23.5577L23.2424 23.54L23.5644 23.3988C23.7388 23.3223 24.0004 23.14 24.148 22.9929C24.6309 22.5163 24.6175 22.6458 24.6175 17.9039V13.6738L23.3967 13.6973C22.0351 13.715 21.8607 13.7562 21.4247 14.168C20.9485 14.6092 20.9686 14.4975 20.9283 17.3626C20.9082 18.7864 20.868 19.9983 20.8344 20.0571C20.6869 20.3219 20.5393 20.3336 17.8831 20.3336H15.361L15.3476 13.8738L15.3275 7.41992L15.133 7.11399C15.0324 6.94926 14.8647 6.74335 14.7641 6.66098C14.6702 6.5845 13.1274 5.85497 11.3365 5.05485C9.13641 4.06647 8.07662 3.55462 8.0632 3.48991C7.99613 3.20163 7.78148 3.21339 14.3348 3.21339H20.4722L20.7003 3.41343L20.9283 3.61345V4.57831C20.9283 5.69613 21.0021 6.00206 21.3643 6.3727C21.7936 6.81394 22.0015 6.86101 23.4034 6.86101H24.6242L24.6041 4.0194C24.584 1.22486 24.584 1.17779 24.4364 0.942461C24.1949 0.548283 23.9669 0.348251 23.5577 0.171755L23.1754 0.00702286L12.5439 0.00114059C6.69486 -0.00474358 1.75808 0.012907 1.57698 0.0364399Z" fill="#212121"/>
<path d="M27.173 3.75469C26.576 3.84294 26.0126 4.27241 25.818 4.78426C25.7174 5.06665 25.7711 5.77853 25.9254 6.03739C25.9857 6.14917 26.6028 6.7375 27.287 7.34347L28.5346 8.44952H23.8058C18.5873 8.44952 18.6677 8.44364 18.0976 8.82016C17.9098 8.94371 17.7354 9.13786 17.5945 9.38496C17.1854 10.0909 17.3262 10.9323 17.9433 11.4794C18.4799 11.9442 18.1513 11.9206 23.6314 11.9206C26.3345 11.9206 28.5078 11.9442 28.5078 11.9736C28.5078 11.9971 27.9645 12.4854 27.3071 13.0443C25.9052 14.2386 25.7577 14.4328 25.7577 15.1329C25.7577 15.8036 26.0796 16.2566 26.7906 16.5861C27.1864 16.7684 27.9578 16.7625 28.3736 16.5743C28.823 16.3743 34.5647 11.3441 34.7928 10.9558C35.0276 10.544 35.0678 10.0968 34.8867 9.685C34.7593 9.39084 34.4775 9.12609 31.7006 6.68455C30.017 5.21373 28.5346 3.9606 28.4005 3.90177C28.0852 3.76057 27.5553 3.69586 27.173 3.75469Z" fill="#212121"/>
</svg>
