<svg width="27" height="20" viewBox="0 0 27 20" fill="none" xmlns="http://www.w3.org/2000/svg">
<path d="M8.0628 10.6352C8.1481 9.59258 7.83533 8.57969 7.1529 7.80514C6.49891 7.03058 5.53214 6.58372 4.53693 6.58372H3.48486C3.17208 6.58372 2.8593 6.43477 2.63183 6.19645C2.40435 5.92833 2.31905 5.60063 2.34748 5.27294C2.40435 4.67713 2.94461 4.20048 3.57016 4.20048H4.79284C5.13406 4.20048 5.44683 4.46859 5.5037 4.79629C5.56057 5.03461 5.75961 5.18357 5.98709 5.18357H7.38037C7.52255 5.18357 7.66472 5.12398 7.75002 5.00482C7.83533 4.88566 7.89219 4.7665 7.86376 4.61754C7.72159 3.09822 6.61265 1.93639 5.19092 1.72785V0.506441C5.19092 0.208534 4.96345 0 4.70754 0H3.34269C3.05834 0 2.8593 0.238325 2.8593 0.506441V1.75765C1.06794 2.11513 -0.154744 3.8132 0.0158625 5.74959C0.186469 7.5966 1.7788 9.05634 3.65547 9.05634H4.56537C4.87815 9.05634 5.19093 9.2053 5.4184 9.44362C5.64588 9.71174 5.73118 10.0394 5.70274 10.3671C5.64588 10.9629 5.10562 11.4396 4.48006 11.4396H3.25739C2.91617 11.4396 2.60339 11.1715 2.54653 10.8438C2.48966 10.6055 2.29062 10.4565 2.06314 10.4565H0.669854C0.527682 10.4565 0.38551 10.5161 0.300207 10.6352C0.214903 10.7544 0.158035 10.8736 0.186469 11.0225C0.328641 12.5121 1.43758 13.7037 2.8593 13.9122V15.1336C2.8593 15.4315 3.08678 15.6401 3.34269 15.6401H4.70754C4.99188 15.6401 5.19092 15.4017 5.19092 15.1336V13.8526C6.75482 13.4951 7.89219 12.1844 8.0628 10.6352Z" fill="#009688"/>
<path d="M26.8861 1.96616C26.8861 1.54909 26.488 1.28098 26.1184 1.40014L21.5404 2.8003C21.0855 2.94925 20.9717 3.57485 21.3698 3.90255L22.7631 4.97501L17.8724 11.946L14.1759 9.11591C13.6356 8.69884 12.8964 8.818 12.5267 9.38402L6.52704 18.0233C6.12896 18.5893 6.2427 19.3639 6.78295 19.7512C7.32321 20.1682 8.0625 20.0491 8.43215 19.483L13.721 11.8864L17.4174 14.7165C17.9577 15.1336 18.697 15.0144 19.0666 14.4484L24.6682 6.40496L26.0615 7.47742C26.4596 7.77533 26.9998 7.47742 26.9998 6.97098L26.8861 1.96616Z" fill="#009688"/>
</svg>
