<?xml version="1.0" standalone="no"?>
<!DOCTYPE svg PUBLIC "-//W3C//DTD SVG 20010904//EN"
 "http://www.w3.org/TR/2001/REC-SVG-20010904/DTD/svg10.dtd">
<svg version="1.0" xmlns="http://www.w3.org/2000/svg"
 width="195.000000pt" height="192.000000pt" viewBox="0 0 195.000000 192.000000"
 preserveAspectRatio="xMidYMid meet">
<metadata>
Created by potrace 1.16, written by Peter Selinger 2001-2019
</metadata>
<g transform="translate(0.000000,192.000000) scale(0.100000,-0.100000)"
fill="#00796B" stroke="none">
<path d="M114 1860 c-46 -19 -68 -85 -44 -131 17 -32 64 -49 134 -49 69 0 68
1 80 -60 6 -27 191 -711 228 -843 16 -58 30 -85 51 -103 l29 -24 446 0 c408 0
449 2 474 18 20 13 69 101 193 350 177 358 183 376 150 454 -18 45 -74 94
-122 107 -25 7 -252 11 -645 11 l-608 0 -2 23 c-2 35 -3 41 -9 52 -3 6 -14 43
-24 83 -28 110 -39 116 -188 119 -67 2 -132 -2 -143 -7z m1436 -740 l-140
-280 -359 0 -359 0 -11 33 c-14 46 -141 513 -141 521 0 3 259 6 575 6 l574 0
-139 -280z"/>
<path d="M553 270 c-65 -39 -85 -105 -54 -175 16 -37 29 -50 67 -66 59 -27
103 -19 151 25 31 28 37 40 40 87 3 41 0 61 -15 85 -38 60 -128 81 -189 44z"/>
<path d="M1504 281 c-32 -14 -72 -68 -80 -106 -19 -101 81 -188 180 -155 65
21 108 100 92 165 -4 14 -21 42 -39 62 -28 30 -41 36 -83 39 -27 2 -58 0 -70
-5z"/>
</g>
</svg>
