<?xml version="1.0" standalone="no"?>
<!DOCTYPE svg PUBLIC "-//W3C//DTD SVG 20010904//EN"
 "http://www.w3.org/TR/2001/REC-SVG-20010904/DTD/svg10.dtd">
<svg version="1.0" xmlns="http://www.w3.org/2000/svg"
 width="550.000000pt" height="500.000000pt" viewBox="0 0 550.000000 500.000000"
 preserveAspectRatio="xMidYMid meet">
<metadata>
Created by potrace 1.16, written by Peter Selinger 2001-2019
</metadata>
<g transform="translate(0.000000,500.000000) scale(0.100000,-0.100000)"
fill="#e4ebf5" stroke="#e4ebf5">
<path d="M215 4791 c-48 -22 -79 -54 -100 -103 -51 -123 47 -258 188 -258 15
0 27 -3 27 -8 0 -4 -19 -6 -42 -5 l-43 2 40 -10 c32 -8 42 -7 51 6 10 13 63
15 407 15 368 0 396 -1 401 -17 14 -50 919 -2995 933 -3036 18 -58 65 -115
110 -133 27 -12 266 -14 1353 -14 1291 0 1322 0 1359 20 136 69 136 261 1 330
-39 20 -61 20 -1269 20 l-1230 0 -40 128 c-22 70 -53 170 -69 222 l-29 95
1201 5 c1178 5 1202 5 1235 25 19 11 42 32 53 46 10 14 137 338 280 720 250
663 262 697 262 764 0 53 -5 80 -21 110 -28 52 -88 109 -138 132 -38 17 -128
18 -1737 21 l-1697 2 -20 68 c-11 37 -70 226 -130 420 -118 384 -124 395 -206
433 -37 17 -75 19 -565 19 -489 0 -528 -2 -565 -19z"/>
<path d="M1774 3920 c1 -13 186 -15 1604 -15 l1602 0 -1599 2 c-1267 3 -1600
6 -1604 16 -2 7 -3 6 -3 -3z"/>
<path d="M3620 1630 l-1195 -5 1203 -5 c661 -3 1207 -3 1212 -2 17 6 11 22 -7
20 -10 -2 -556 -5 -1213 -8z"/>
<path d="M2705 1009 c-85 -12 -191 -67 -258 -135 -66 -66 -110 -152 -133 -257
-16 -73 -16 -81 0 -150 34 -139 91 -231 188 -303 138 -102 326 -119 483 -44
110 53 218 178 246 285 18 70 20 72 33 40 l13 -30 -1 43 c0 24 -2 38 -4 32 -8
-23 -18 -8 -14 20 2 16 8 27 13 24 12 -7 12 19 0 32 -5 5 -21 48 -35 95 -73
244 -286 383 -531 348z"/>
<path d="M4188 1009 c-178 -26 -335 -171 -383 -354 -68 -261 114 -531 387
-577 170 -28 360 54 460 199 40 59 88 196 88 253 0 25 4 59 8 75 6 20 5 42 -5
65 l-13 35 6 -38 c3 -26 2 -37 -5 -32 -6 3 -11 14 -11 23 0 10 -16 50 -35 90
-89 185 -291 291 -497 261z"/>
</g>
</svg>
