<?xml version="1.0" standalone="no"?>
<!DOCTYPE svg PUBLIC "-//W3C//DTD SVG 20010904//EN"
 "http://www.w3.org/TR/2001/REC-SVG-20010904/DTD/svg10.dtd">
<svg version="1.0" xmlns="http://www.w3.org/2000/svg"
 width="196.000000pt" height="182.000000pt" viewBox="0 0 196.000000 182.000000"
 preserveAspectRatio="xMidYMid meet">
<metadata>
Created by potrace 1.16, written by Peter Selinger 2001-2019
</metadata>
<g transform="translate(0.000000,182.000000) scale(0.100000,-0.100000)"
fill="#00796B" stroke="none">
<path d="M275 1741 c-91 -23 -171 -96 -202 -185 -17 -47 -18 -101 -18 -651 0
-550 1 -604 18 -651 23 -67 77 -128 141 -162 l51 -27 378 -3 c440 -4 457 -1
537 74 73 68 92 117 98 250 6 133 -1 178 -33 210 -34 34 -93 33 -126 -2 -22
-24 -24 -35 -29 -161 -5 -133 -5 -135 -33 -159 l-28 -24 -363 0 -363 0 -27 25
-26 24 0 606 0 606 26 24 27 25 363 0 363 0 27 -23 c27 -23 27 -25 25 -133 -2
-116 6 -154 41 -191 30 -32 91 -31 123 1 32 32 39 77 33 210 -6 133 -25 182
-98 250 -79 74 -96 76 -514 75 -199 -1 -374 -4 -391 -8z"/>
<path d="M1508 1265 c-29 -16 -52 -71 -42 -101 4 -10 38 -50 75 -89 l69 -70
-538 3 c-489 2 -540 1 -575 -15 -37 -16 -67 -56 -67 -88 0 -29 28 -71 55 -83
19 -9 171 -12 578 -12 l551 0 -70 -72 c-39 -40 -74 -82 -78 -92 -11 -31 13
-85 44 -101 63 -33 72 -27 252 153 160 160 168 169 168 207 0 38 -8 47 -168
207 -180 181 -191 187 -254 153z"/>
</g>
</svg>
