<?xml version="1.0" standalone="no"?>
<!DOCTYPE svg PUBLIC "-//W3C//DTD SVG 20010904//EN"
 "http://www.w3.org/TR/2001/REC-SVG-20010904/DTD/svg10.dtd">
<svg version="1.0" xmlns="http://www.w3.org/2000/svg"
 width="225.000000pt" height="164.000000pt" viewBox="0 0 225.000000 164.000000"
 preserveAspectRatio="xMidYMid meet">
<metadata>
Created by potrace 1.16, written by Peter Selinger 2001-2019
</metadata>
<g transform="translate(0.000000,164.000000) scale(0.100000,-0.100000)"
fill="#00796B" stroke="none">
<path d="M84 1559 c-16 -5 -41 -20 -55 -35 l-24 -26 0 -683 0 -683 24 -26 c14
-14 41 -30 60 -36 49 -13 2023 -13 2072 0 19 6 46 22 60 36 l24 26 0 683 0
683 -24 26 c-14 14 -41 30 -60 36 -45 13 -2033 12 -2077 -1z m2083 -82 c6 -6
4 -1318 -2 -1328 -8 -12 -2072 -12 -2080 0 -6 11 -8 1319 -1 1329 4 7 2076 5
2083 -1z"/>
<path d="M154 1395 c-4 -10 -3 -24 2 -33 9 -13 428 -293 799 -533 131 -85 143
-90 182 -86 35 4 119 55 485 297 244 161 451 300 462 310 27 26 13 63 -22 58
-15 -2 -223 -134 -462 -292 -239 -159 -445 -293 -457 -298 -18 -9 -82 30 -475
288 -249 164 -465 300 -480 302 -20 3 -30 -1 -34 -13z"/>
</g>
</svg>
