<?xml version="1.0" standalone="no"?>
<!DOCTYPE svg PUBLIC "-//W3C//DTD SVG 20010904//EN"
 "http://www.w3.org/TR/2001/REC-SVG-20010904/DTD/svg10.dtd">
<svg version="1.0" xmlns="http://www.w3.org/2000/svg"
 width="816.000000pt" height="877.000000pt" viewBox="0 0 816.000000 877.000000"
 preserveAspectRatio="xMidYMid meet">
<metadata>
Created by potrace 1.16, written by Peter Selinger 2001-2019
</metadata>
<g transform="translate(0.000000,877.000000) scale(0.100000,-0.100000)"
fill="#00796B" stroke="none">
<path d="M660 8355 c-203 -40 -389 -183 -479 -367 -78 -159 -71 195 -71 -3695
0 -2486 3 -3507 11 -3545 15 -76 92 -230 139 -279 22 -23 40 -45 40 -48 1 -11
108 -94 157 -122 26 -15 84 -40 128 -56 l80 -28 1993 -3 c1095 -1 1992 1 1992
4 0 4 -30 39 -67 77 -107 111 -121 126 -125 135 -1 4 -23 35 -47 70 l-45 62
-1810 0 c-2018 0 -1864 -5 -1963 69 -52 40 -105 111 -125 169 -18 51 -25 6845
-7 6937 21 114 83 196 187 247 l67 33 2780 0 2780 0 56 -28 c67 -32 142 -109
172 -175 l22 -47 5 -1700 5 -1700 82 -7 c45 -4 120 -14 166 -22 46 -9 87 -16
90 -16 4 0 6 784 5 1743 l-3 1742 -27 78 c-74 219 -236 381 -453 455 l-80 27
-2795 2 c-2261 1 -2807 -1 -2860 -12z"/>
<path d="M1850 6288 c0 -2 -2 -81 -3 -176 l-2 -172 1563 0 1562 0 -2 173 -3
172 -1557 3 c-857 1 -1558 1 -1558 0z"/>
<path d="M1844 5241 c-2 -2 -4 -80 -4 -173 l0 -168 1565 0 1565 0 -2 170 -3
170 -1558 2 c-857 2 -1561 1 -1563 -1z"/>
<path d="M1847 4025 l2 -170 1500 -3 1499 -2 61 45 61 45 0 127 0 128 -1562 0
-1563 0 2 -170z"/>
<path d="M6125 3669 c-169 -23 -389 -91 -540 -166 -973 -489 -1268 -1732 -617
-2601 446 -596 1234 -839 1947 -601 446 149 842 509 1031 939 146 332 187 706
114 1055 -126 608 -563 1100 -1147 1295 -198 66 -291 81 -518 85 -110 2 -231
-1 -270 -6z m456 -354 c289 -43 567 -190 780 -412 193 -201 319 -451 366 -722
22 -127 22 -346 -1 -471 -134 -754 -849 -1259 -1601 -1130 -286 49 -519 168
-731 372 -207 200 -338 439 -400 728 -14 64 -18 129 -18 265 0 136 4 201 18
265 86 401 309 718 651 926 142 87 342 160 501 183 96 14 331 12 435 -4z"/>
<path d="M6187 2293 l3 -518 517 0 518 0 3 170 2 170 -341 -3 c-271 -2 -344 0
-351 10 -4 7 -8 165 -8 351 l0 337 -172 0 -173 0 2 -517z"/>
<path d="M1845 2983 l0 -173 1121 0 1121 0 32 78 c18 42 55 119 82 171 27 52
49 94 49 95 0 1 -541 1 -1202 1 l-1203 0 0 -172z"/>
</g>
</svg>
