<?xml version="1.0" standalone="no"?>
<!DOCTYPE svg PUBLIC "-//W3C//DTD SVG 20010904//EN"
 "http://www.w3.org/TR/2001/REC-SVG-20010904/DTD/svg10.dtd">
<svg version="1.0" xmlns="http://www.w3.org/2000/svg"
 width="511.000000pt" height="594.000000pt" viewBox="0 0 511.000000 594.000000"
 preserveAspectRatio="xMidYMid meet">
<metadata>
Created by potrace 1.16, written by Peter Selinger 2001-2019
</metadata>
<g transform="translate(0.000000,594.000000) scale(0.100000,-0.100000)"
fill="#00796B" stroke="none">
<path d="M2500 5919 c-19 -5 -55 -9 -80 -9 -69 -2 -123 -7 -141 -15 -10 -3
-23 -5 -30 -4 -8 1 -21 0 -29 -3 -8 -3 -69 -20 -134 -37 -142 -38 -300 -102
-413 -170 -46 -27 -83 -46 -83 -43 0 4 -5 -1 -11 -11 -6 -9 -14 -15 -20 -12
-5 4 -9 2 -9 -2 0 -9 -88 -78 -103 -81 -4 -1 -22 -18 -39 -38 -18 -20 -49 -47
-70 -60 -21 -13 -38 -30 -38 -38 0 -7 -21 -33 -47 -57 -27 -24 -48 -48 -48
-52 0 -5 -8 -14 -17 -21 -10 -7 -18 -17 -18 -22 0 -5 -13 -24 -29 -42 -17 -17
-27 -32 -23 -32 4 0 -2 -7 -12 -15 -11 -8 -16 -15 -12 -15 8 0 -32 -61 -49
-72 -5 -4 -7 -8 -3 -8 4 0 -10 -33 -31 -72 -55 -102 -105 -235 -136 -358 -15
-58 -30 -112 -33 -120 -3 -8 -4 -21 -3 -29 1 -7 -1 -20 -5 -30 -4 -9 -6 -28
-5 -43 1 -15 -1 -32 -4 -38 -9 -14 -9 -356 0 -370 3 -6 5 -23 4 -38 -1 -15 2
-35 6 -44 4 -10 5 -25 2 -33 -4 -8 -2 -17 3 -20 6 -4 10 -15 10 -25 0 -10 16
-74 36 -142 20 -68 36 -129 37 -135 0 -7 4 -13 9 -13 4 0 8 -5 8 -10 0 -20
100 -216 147 -290 27 -41 49 -78 49 -81 -1 -4 10 -16 24 -28 14 -11 21 -20 16
-21 -5 0 3 -10 18 -21 15 -12 25 -23 23 -25 -6 -6 207 -220 215 -217 3 2 16
-9 27 -23 12 -15 21 -24 21 -20 0 3 28 -14 61 -39 34 -25 105 -70 158 -99 96
-54 313 -146 344 -146 10 0 17 -4 17 -9 0 -5 6 -8 13 -8 24 2 107 -15 107 -23
0 -4 11 -5 25 -2 14 2 25 0 25 -5 0 -5 14 -8 30 -5 17 2 30 0 30 -5 0 -5 13
-8 30 -5 16 2 38 1 47 -2 10 -4 94 -6 188 -5 236 2 245 3 245 13 0 4 14 6 30
4 17 -3 30 -1 30 3 0 4 21 10 47 14 25 4 92 20 147 37 56 17 107 31 114 31 6
0 12 4 12 9 0 4 5 8 10 8 6 0 58 23 115 50 58 28 107 50 110 50 3 0 15 9 27
19 11 11 24 18 28 16 5 -3 11 2 14 11 3 8 10 13 15 10 5 -3 12 1 15 10 4 9 9
14 12 12 3 -3 19 7 37 23 17 16 33 26 35 24 3 -2 14 7 24 21 11 14 22 23 24
21 3 -2 24 14 48 37 24 23 60 54 79 70 20 16 34 32 32 36 -3 4 15 26 40 49 25
23 45 43 45 46 0 10 75 105 83 105 4 0 6 4 3 9 -3 5 5 20 19 35 13 15 24 29
24 31 0 3 17 36 38 72 38 70 113 236 113 253 0 6 4 10 9 10 5 0 8 6 8 13 -2
19 37 157 44 157 4 0 5 9 2 20 -3 11 -1 20 4 20 6 0 8 11 5 25 -2 14 0 25 7
25 5 0 8 7 5 15 -4 8 -3 23 1 33 4 9 7 31 6 48 -1 18 1 34 6 37 10 6 9 369 -1
385 -4 7 -6 25 -5 40 1 15 -2 35 -6 45 -4 9 -5 24 -1 32 3 8 0 15 -5 15 -7 0
-9 11 -7 25 3 14 1 25 -3 25 -5 0 -9 8 -9 18 0 10 -17 70 -37 133 -21 63 -37
119 -38 124 0 6 -3 12 -6 15 -3 3 -18 32 -33 65 -15 33 -44 89 -64 125 -20 36
-35 68 -34 73 1 4 -2 7 -7 7 -9 0 -57 74 -50 76 2 1 -7 11 -21 23 -14 11 -21
20 -16 21 5 0 -3 10 -18 21 -15 12 -25 23 -22 26 2 3 -11 18 -30 35 -19 17
-34 35 -34 42 0 6 -21 29 -47 51 -25 22 -63 56 -84 76 -21 20 -40 34 -43 32
-2 -2 -13 8 -25 23 -11 15 -21 23 -21 18 -1 -5 -9 1 -19 13 -10 12 -21 19 -25
16 -3 -3 -8 2 -12 11 -3 9 -12 16 -18 16 -7 0 -22 9 -34 20 -12 11 -24 20 -27
20 -3 0 -35 16 -71 36 -72 40 -261 123 -281 124 -7 0 -13 4 -13 10 0 5 -7 7
-15 4 -8 -4 -15 -2 -15 2 0 5 -15 10 -32 11 -18 2 -34 7 -36 12 -2 5 -12 7
-22 4 -11 -3 -20 -1 -20 3 0 5 -19 10 -42 11 -23 2 -46 7 -51 12 -5 5 -16 7
-23 4 -8 -3 -22 -2 -31 2 -10 4 -30 7 -45 6 -15 -1 -33 1 -39 5 -6 3 -41 8
-78 9 -36 1 -77 4 -91 8 -14 3 -41 1 -60 -4z"/>
<path d="M820 2488 c-94 -24 -248 -96 -317 -149 -29 -22 -53 -38 -53 -36 0 2
-36 -33 -80 -77 -44 -44 -80 -81 -80 -83 0 -2 -16 -25 -35 -51 -73 -103 -141
-266 -169 -407 -7 -39 -15 -74 -16 -80 -1 -5 -2 -369 -1 -807 l1 -798 2490 0
2490 0 1 798 c1 438 0 802 -1 807 -1 6 -9 41 -16 80 -28 141 -96 304 -169 407
-19 26 -35 49 -35 51 0 2 -36 39 -80 83 -44 44 -80 79 -80 77 0 -2 -24 14 -53
36 -66 50 -221 124 -308 147 l-67 18 -30 -25 c-17 -13 -31 -28 -31 -33 -1 -12
-213 -226 -225 -226 -4 0 -17 -11 -28 -25 -11 -14 -25 -25 -31 -25 -7 0 -18
-9 -25 -20 -7 -12 -17 -18 -22 -15 -6 3 -10 2 -10 -4 0 -12 -91 -77 -102 -73
-5 1 -8 -2 -8 -8 0 -9 -56 -43 -63 -38 -2 2 -11 -5 -21 -14 -41 -41 -338 -184
-357 -172 -5 3 -9 1 -9 -4 0 -9 -81 -37 -105 -37 -5 0 -13 -4 -16 -9 -4 -5
-21 -9 -38 -10 -17 0 -31 -5 -31 -10 0 -4 -9 -6 -20 -3 -10 3 -20 1 -22 -4 -2
-5 -21 -10 -43 -12 -22 -1 -43 -5 -46 -10 -3 -4 -31 -8 -62 -10 -31 -1 -57 -6
-57 -10 0 -5 -17 -7 -38 -6 -21 2 -42 0 -47 -3 -15 -9 -384 -8 -390 1 -2 5
-16 6 -30 4 -13 -3 -33 -2 -42 2 -10 4 -42 9 -72 11 -30 2 -57 7 -60 11 -3 5
-24 9 -46 11 -22 2 -42 8 -43 13 -2 5 -8 7 -12 4 -12 -7 -130 26 -130 36 0 5
-7 6 -15 3 -8 -4 -15 -1 -15 5 0 6 -6 8 -12 6 -28 -11 -393 166 -446 216 -11
10 -22 15 -26 12 -3 -3 -8 2 -12 11 -3 9 -9 14 -13 11 -4 -2 -22 9 -39 24 -17
16 -33 27 -36 24 -2 -3 -11 4 -18 16 -7 12 -18 21 -25 21 -6 0 -18 9 -26 20
-8 11 -16 18 -19 15 -3 -3 -19 10 -36 30 -17 19 -35 35 -39 35 -12 0 -163 154
-163 165 0 6 -16 23 -35 38 -20 16 -33 32 -31 36 3 4 -3 12 -12 18 -13 8 -37
5 -92 -9z"/>
</g>
</svg>
