<?xml version="1.0" standalone="no"?>
<!DOCTYPE svg PUBLIC "-//W3C//DTD SVG 20010904//EN"
 "http://www.w3.org/TR/2001/REC-SVG-20010904/DTD/svg10.dtd">
<svg version="1.0" xmlns="http://www.w3.org/2000/svg"
 width="223.000000pt" height="224.000000pt" viewBox="0 0 223.000000 224.000000"
 preserveAspectRatio="xMidYMid meet">
<metadata>
Created by potrace 1.16, written by Peter Selinger 2001-2019
</metadata>
<g transform="translate(0.000000,224.000000) scale(0.100000,-0.100000)"
fill="#00796B" stroke="none">
<path d="M486 2084 c-93 -22 -193 -81 -272 -159 -124 -122 -187 -272 -188
-445 -1 -200 69 -346 260 -546 55 -56 286 -280 601 -582 166 -159 217 -202
238 -202 21 0 73 45 248 213 649 622 723 700 786 832 51 105 66 170 65 285 -1
173 -64 323 -188 445 -81 80 -179 137 -277 160 -83 19 -219 19 -294 0 -89 -23
-212 -85 -280 -141 l-60 -50 -60 49 c-69 57 -193 120 -280 142 -73 19 -220 18
-299 -1z m256 -119 c109 -23 191 -69 292 -166 l91 -87 88 84 c145 141 302 200
464 177 288 -42 482 -340 408 -626 -37 -142 -112 -233 -512 -618 -410 -394
-441 -422 -455 -416 -30 11 -760 724 -825 804 -109 135 -143 221 -143 358 0
137 44 245 144 352 117 126 276 175 448 138z"/>
</g>
</svg>
