<svg width="36" height="36" viewBox="0 0 36 36" fill="none" xmlns="http://www.w3.org/2000/svg">
<rect width="36" height="36" fill="#F0F0F0"/>
<g clip-path="url(#clip0_17_16)">
<rect width="375" height="812" transform="translate(-169 -746)" fill="white"/>
<g filter="url(#filter0_d_17_16)">
<rect x="-74" y="-9" width="186" height="54" rx="15" fill="#CFD8DC"/>
<rect width="36" height="36" rx="18" fill="#212121"/>
<path d="M15.7157 -5.96384C10.8289 -5.55482 6.34568 -3.72066 2.51193 -0.550804C1.08688 0.6315 -0.678662 2.57431 -1.79474 4.19759C-6.71934 11.3617 -7.36881 20.7818 -3.47831 28.553C-2.3181 30.8665 -0.937188 32.7902 0.897716 34.6499C3.55864 37.3532 6.57898 39.2449 10.1353 40.4336C18.591 43.2711 27.8223 41.0471 34.1278 34.6499C37.9237 30.809 40.2315 25.9648 40.8873 20.4942C41.0386 19.216 41.0386 16.4232 40.881 15.1259C40.1243 8.73507 37.022 3.07919 32.11 -0.870346C28.6861 -3.6184 24.5812 -5.34393 20.2241 -5.86797C19.2089 -5.9894 16.6867 -6.04053 15.7157 -5.96384ZM14.6374 7.68698C14.7257 7.77645 14.7383 8.12794 14.7383 10.614C14.7383 12.8124 14.7572 13.4643 14.8203 13.5538C14.877 13.6305 15.1986 13.7263 15.9679 13.8797C22.4058 15.177 26.7818 18.6473 29.1653 24.3287C29.6256 25.4279 30.2499 27.3899 30.2499 27.7286C30.2499 28.0929 29.8463 28.1504 29.6004 27.8245C29.2536 27.3643 28.2573 26.3099 27.6457 25.7411C24.7136 23.0314 21.2393 21.4656 17.1849 21.0374C16.0499 20.9224 14.9212 20.9096 14.814 21.0183C14.7572 21.0758 14.7383 21.8299 14.7383 24.0156C14.7383 27.179 14.7446 27.1407 14.4041 27.1407C14.3032 27.1407 12.8971 25.7539 9.52366 22.3348C5.76557 18.5258 4.77561 17.4905 4.77561 17.3627C4.77561 17.2349 5.76557 16.1996 9.51735 12.397C12.9034 8.96515 14.3032 7.58472 14.4041 7.58472C14.4798 7.58472 14.587 7.62946 14.6374 7.68698Z" fill="#CFD8DC"/>
</g>
</g>
<defs>
<filter id="filter0_d_17_16" x="-78" y="-9" width="194" height="62" filterUnits="userSpaceOnUse" color-interpolation-filters="sRGB">
<feFlood flood-opacity="0" result="BackgroundImageFix"/>
<feColorMatrix in="SourceAlpha" type="matrix" values="0 0 0 0 0 0 0 0 0 0 0 0 0 0 0 0 0 0 127 0" result="hardAlpha"/>
<feOffset dy="4"/>
<feGaussianBlur stdDeviation="2"/>
<feComposite in2="hardAlpha" operator="out"/>
<feColorMatrix type="matrix" values="0 0 0 0 0 0 0 0 0 0 0 0 0 0 0 0 0 0 0.25 0"/>
<feBlend mode="normal" in2="BackgroundImageFix" result="effect1_dropShadow_17_16"/>
<feBlend mode="normal" in="SourceGraphic" in2="effect1_dropShadow_17_16" result="shape"/>
</filter>
<clipPath id="clip0_17_16">
<rect width="375" height="812" fill="white" transform="translate(-169 -746)"/>
</clipPath>
</defs>
</svg>
