<svg width="27" height="20" viewBox="0 0 27 20" fill="none" xmlns="http://www.w3.org/2000/svg">
<path d="M15.9342 6.36364C15.6091 6.36364 15.2974 6.26786 15.0675 6.09737C14.8376 5.92688 14.7085 5.69565 14.7085 5.45455V0.909091C14.7085 0.667985 14.8376 0.436754 15.0675 0.266267C15.2974 0.0957789 15.6091 0 15.9342 0C16.2593 0 16.571 0.0957789 16.8009 0.266267C17.0307 0.436754 17.1599 0.667985 17.1599 0.909091V5.45455C17.1599 5.69565 17.0307 5.92688 16.8009 6.09737C16.571 6.26786 16.2593 6.36364 15.9342 6.36364Z" fill="#009688"/>
<path d="M15.9342 9.09089C16.6111 9.09089 17.1599 8.68387 17.1599 8.1818C17.1599 7.67972 16.6111 7.27271 15.9342 7.27271C15.2573 7.27271 14.7085 7.67972 14.7085 8.1818C14.7085 8.68387 15.2573 9.09089 15.9342 9.09089Z" fill="#009688"/>
<path d="M11.0316 20C10.3043 20 9.59338 19.84 8.98869 19.5403C8.384 19.2407 7.9127 18.8147 7.63439 18.3164C7.35609 17.818 7.28327 17.2697 7.42515 16.7406C7.56703 16.2116 7.91724 15.7256 8.43148 15.3442C8.94573 14.9628 9.60092 14.703 10.3142 14.5978C11.0275 14.4926 11.7668 14.5466 12.4387 14.753C13.1106 14.9594 13.6849 15.309 14.0889 15.7575C14.493 16.206 14.7086 16.7333 14.7086 17.2727C14.7086 17.996 14.3212 18.6897 13.6316 19.2012C12.9421 19.7126 12.0068 20 11.0316 20ZM11.0316 16.3636C10.7891 16.3636 10.5522 16.4169 10.3506 16.5168C10.149 16.6167 9.99194 16.7587 9.89917 16.9248C9.80641 17.0909 9.78213 17.2737 9.82943 17.45C9.87672 17.6264 9.99346 17.7884 10.1649 17.9155C10.3363 18.0426 10.5547 18.1292 10.7924 18.1643C11.0302 18.1994 11.2767 18.1814 11.5006 18.1126C11.7246 18.0438 11.916 17.9272 12.0507 17.7777C12.1854 17.6282 12.2573 17.4525 12.2573 17.2727C12.2573 17.0316 12.1281 16.8003 11.8983 16.6299C11.6684 16.4594 11.3566 16.3636 11.0316 16.3636Z" fill="#009688"/>
<path d="M22.0628 20C21.3356 20 20.6246 19.84 20.0199 19.5403C19.4153 19.2407 18.944 18.8147 18.6656 18.3164C18.3873 17.818 18.3145 17.2697 18.4564 16.7406C18.5983 16.2116 18.9485 15.7256 19.4627 15.3442C19.977 14.9628 20.6322 14.703 21.3455 14.5978C22.0587 14.4926 22.7981 14.5466 23.47 14.753C24.1419 14.9594 24.7161 15.309 25.1202 15.7575C25.5242 16.206 25.7399 16.7333 25.7399 17.2727C25.7399 17.996 25.3525 18.6897 24.6629 19.2012C23.9733 19.7126 23.038 20 22.0628 20ZM22.0628 16.3636C21.8204 16.3636 21.5834 16.4169 21.3819 16.5168C21.1803 16.6167 21.0232 16.7587 20.9304 16.9248C20.8377 17.0909 20.8134 17.2737 20.8607 17.45C20.908 17.6264 21.0247 17.7884 21.1961 17.9155C21.3675 18.0426 21.5859 18.1292 21.8237 18.1643C22.0615 18.1994 22.3079 18.1814 22.5319 18.1126C22.7558 18.0438 22.9473 17.9272 23.0819 17.7777C23.2166 17.6282 23.2885 17.4525 23.2885 17.2727C23.2885 17.0316 23.1594 16.8003 22.9295 16.6299C22.6996 16.4594 22.3879 16.3636 22.0628 16.3636Z" fill="#009688"/>
<path d="M22.0624 16.3636H8.57983C7.60461 16.3974 6.65126 16.1424 5.92949 15.6548C5.20773 15.1672 4.77668 14.487 4.73116 13.7636C4.68565 13.0403 5.02941 12.3332 5.68682 11.7979C6.34422 11.2626 7.26142 10.9428 8.23664 10.9091L5.40529 2.50909C5.33819 2.30739 5.17996 2.12881 4.95694 2.0031C4.73393 1.87739 4.45959 1.81213 4.1796 1.81818H1.22569C0.900617 1.81818 0.588858 1.7224 0.358996 1.55192C0.129135 1.38143 0 1.1502 0 0.909091C0 0.667985 0.129135 0.436754 0.358996 0.266267C0.588858 0.0957789 0.900617 4.47662e-09 1.22569 4.47662e-09H4.21637C5.03594 -3.48111e-05 5.83202 0.203006 6.47823 0.576884C7.12443 0.950761 7.58371 1.47404 7.78313 2.06364L11.0312 11.6C11.0771 11.7342 11.0811 11.8744 11.0429 12.0098C11.0046 12.1453 10.9252 12.2726 10.8106 12.3818C10.6914 12.4939 10.5383 12.5835 10.3637 12.6436C10.1891 12.7036 9.99785 12.7323 9.80552 12.7273H8.57983C8.25476 12.7273 7.943 12.8231 7.71314 12.9935C7.48328 13.164 7.35414 13.3953 7.35414 13.6364C7.35414 13.8775 7.48328 14.1087 7.71314 14.2792C7.943 14.4497 8.25476 14.5455 8.57983 14.5455H22.0624C22.3875 14.5455 22.6993 14.6412 22.9291 14.8117C23.159 14.9822 23.2881 15.2134 23.2881 15.4545C23.2881 15.6957 23.159 15.9269 22.9291 16.0974C22.6993 16.2679 22.3875 16.3636 22.0624 16.3636Z" fill="#009688"/>
<path d="M20.4198 12.7273H9.80528C9.48021 12.7273 9.16845 12.6315 8.93859 12.4611C8.70872 12.2906 8.57959 12.0593 8.57959 11.8182C8.57959 11.5771 8.70872 11.3459 8.93859 11.1754C9.16845 11.0049 9.48021 10.9091 9.80528 10.9091H20.4198C20.9672 10.9088 21.4988 10.7726 21.9297 10.5222C22.3607 10.2717 22.6662 9.92151 22.7976 9.52732L24.5136 4.32732C24.5916 4.08622 24.7955 3.87797 25.0806 3.7484C25.3656 3.61883 25.7083 3.57855 26.0334 3.63641C26.3585 3.69428 26.6393 3.84555 26.814 4.05696C26.9887 4.26836 27.043 4.52258 26.9649 4.76369L25.1754 10.0001C24.9033 10.7817 24.2883 11.4739 23.4273 11.9677C22.5662 12.4615 21.5082 12.7287 20.4198 12.7273Z" fill="#009688"/>
</svg>
