<svg width="21" height="20" viewBox="0 0 21 20" fill="none" xmlns="http://www.w3.org/2000/svg">
<path d="M8.39835 2.1056C9.53496 2.1056 10.6461 2.37308 11.5911 2.8742C12.5362 3.37531 13.2728 4.08757 13.7077 4.92091C14.1427 5.75424 14.2565 6.67121 14.0347 7.55587C13.813 8.44053 13.2657 9.25314 12.462 9.89094C11.6583 10.5287 10.6343 10.9631 9.5195 11.1391C8.40472 11.315 7.24923 11.2247 6.19913 10.8795C5.14904 10.5344 4.25151 9.94983 3.62004 9.19986C2.98857 8.44988 2.65152 7.56814 2.65152 6.66615C2.65152 5.45662 3.25699 4.29663 4.33473 3.44136C5.41247 2.58609 6.87419 2.1056 8.39835 2.1056ZM8.39835 1.01458e-05C6.46036 0.000579028 4.58221 0.532825 3.08214 1.50656C1.58207 2.4803 0.552328 3.83565 0.167401 5.34295C-0.217526 6.85025 0.0660326 8.41681 0.97003 9.77719C1.87403 11.1376 3.34287 12.2081 5.12767 12.8074C7.18015 13.4958 9.49315 13.5089 11.5578 12.8439C13.6225 12.1789 15.2698 10.8903 16.1372 9.26151C17.0047 7.63271 17.0212 5.79716 16.1833 4.15867C15.3453 2.52018 13.7215 1.21295 11.669 0.524573C10.6344 0.176866 9.52194 -0.00155013 8.39835 1.01458e-05Z" fill="#212121"/>
<path d="M14.4938 12.6413L12.5557 13.5316L19.0429 19.8756L20.981 18.9853L14.4938 12.6413Z" fill="#212121"/>
</svg>
